HIERARCHY
ROOT Hips
{
  OFFSET 34.0906 98.8318 78.6669
  CHANNELS 6 Xposition Yposition Zposition Zrotation Xrotation Yrotation
  JOINT spine
  {
    OFFSET 0 8.81704 0.507024
    CHANNELS 3 Zrotation Xrotation Yrotation
    JOINT spine1
    {
      OFFSET 0 10.7766 0
      CHANNELS 3 Zrotation Xrotation Yrotation
      JOINT spine2
      {
        OFFSET 0 10.3259 0
        CHANNELS 3 Zrotation Xrotation Yrotation
        JOINT Neck
        {
          OFFSET 0 26.511 1.26395
          CHANNELS 3 Zrotation Xrotation Yrotation
          JOINT Head
          {
            OFFSET 0 8.00966 0
            CHANNELS 3 Zrotation Xrotation Yrotation
            End Site
            {
              OFFSET 0 19.3879 -6.39386
            }
          }
        }
        JOINT RightShoulder
        {
          OFFSET -4.34795 11.1512 -0.605422
          CHANNELS 3 Zrotation Xrotation Yrotation
          JOINT RightArm
          {
            OFFSET 0 14.6258 0
            CHANNELS 3 Zrotation Xrotation Yrotation
            JOINT RightArmRoll
            {
              OFFSET 0 7.3834 0
              CHANNELS 3 Zrotation Xrotation Yrotation
              JOINT RightForeArm
              {
                OFFSET 0 21.5052 0
                CHANNELS 3 Zrotation Xrotation Yrotation
                JOINT RightForeArmRoll
                {
                  OFFSET 0 8.28532 0
                  CHANNELS 3 Zrotation Xrotation Yrotation
                  JOINT RightHand
                  {
                    OFFSET 0 16.6268 0
                    CHANNELS 3 Zrotation Xrotation Yrotation
                    End Site
                    {
                      OFFSET 0 0 0
                    }
                  }
                }
              }
            }
          }
        }
        JOINT LeftShoulder
        {
          OFFSET 4.34795 11.1512 -0.605422
          CHANNELS 3 Zrotation Xrotation Yrotation
          JOINT LeftArm
          {
            OFFSET 0 14.6258 0
            CHANNELS 3 Zrotation Xrotation Yrotation
            JOINT LeftArmRoll
            {
              OFFSET 0 7.3834 0
              CHANNELS 3 Zrotation Xrotation Yrotation
              JOINT LeftForeArm
              {
                OFFSET 0 21.5052 0
                CHANNELS 3 Zrotation Xrotation Yrotation
                JOINT LeftForeArmRoll
                {
                  OFFSET 0 8.28532 0
                  CHANNELS 3 Zrotation Xrotation Yrotation
                  JOINT LeftHand
                  {
                    OFFSET 0 16.6268 0
                    CHANNELS 3 Zrotation Xrotation Yrotation
                    End Site
                    {
                      OFFSET 0 0 0
                    }
                  }
                }
              }
            }
          }
        }
      }
    }
  }
  JOINT RightUpLeg
  {
    OFFSET -7.8151 -1.43309 -1.20217
    CHANNELS 3 Zrotation Xrotation Yrotation
    JOINT RightUpLegRoll
    {
      OFFSET 0 19.4959 0
      CHANNELS 3 Zrotation Xrotation Yrotation
      JOINT RightLeg
      {
        OFFSET 0 -24.1427 0
        CHANNELS 3 Zrotation Xrotation Yrotation
        JOINT RightLegRoll
        {
          OFFSET 0 24.2217 0
          CHANNELS 3 Zrotation Xrotation Yrotation
          JOINT RightFoot
          {
            OFFSET 0 20.1605 0
            CHANNELS 3 Zrotation Xrotation Yrotation
            JOINT RightToeBase
            {
              OFFSET 0 16.8532 0
              CHANNELS 3 Zrotation Xrotation Yrotation
              End Site
              {
                OFFSET 0.00714343 8.16186 -0.940781
              }
            }
          }
        }
      }
    }
  }
  JOINT LeftUpLeg
  {
    OFFSET 7.8151 -1.43309 -1.20217
    CHANNELS 3 Zrotation Xrotation Yrotation
    JOINT LeftUpLegRoll
    {
      OFFSET 0 19.496 0
      CHANNELS 3 Zrotation Xrotation Yrotation
      JOINT LeftLeg
      {
        OFFSET 0 24.1426 0
        CHANNELS 3 Zrotation Xrotation Yrotation
        JOINT LeftLegRoll
        {
          OFFSET 0 24.4456 0
          CHANNELS 3 Zrotation Xrotation Yrotation
          JOINT LeftFoot
          {
            OFFSET 0 19.9366 0
            CHANNELS 3 Zrotation Xrotation Yrotation
            JOINT LeftToeBase
            {
              OFFSET 0 16.8532 0
              CHANNELS 3 Zrotation Xrotation Yrotation
              End Site
              {
                OFFSET -0.0320138 8.16187 -0.94078
              }
            }
          }
        }
      }
    }
  }
}
MOTION
Frames: 10
Frame Time: 0.00208333
51.2903 100.859 17.6987 0.03814 -0.073673 0.156193 0.0010325 -2.48181 -0.00162469 0.00207745 -0.960806 -0.00251995 0.00211965 0.684269 -0.0025658 6.14088 24.1302 6.18151 -13.8629 -0.0472598 6.77017 35.0124 -11.0132 -7.10406 50.3147 22.3829 50.759 1.69405e-05 6.64099e-06 3.38779e-07 -2.89805 1.1207 -0.00644695 1.22457e-05 1.05363e-06 -3.00446 8.02893 -4.95145 0.69771 -40.5242 -10.9809 6.98702 -52.3729 17.457 -44.2857 3.46516e-06 1.2433e-06 2.95205e-06 4.19446 1.51848 0.944748 4.86253e-07 3.06627e-07 2.99999 -8.02886 -4.95143 -0.697674 177.906 1.33241 -0.345776 180 7.01548e-15 178.929 178.454 6.40165 179.704 1.36169e-06 -1.87513e-07 0.078334 -18.7261 67.9929 19.5215 8.13373 25.2328 -3.48656 -176.745 1.40242 2.12025 4.54188e-06 -4.6773e-06 -1.07055 -2.31541 -6.69865 0.144279 -6.58399e-07 -4.47814e-06 -0.0952009 19.1044 68.4474 -19.9127 -8.1277 25.2331 3.48399 
51.2987 100.856 17.692 0.0389492 -0.0752042 0.151542 0.000265275 -2.48117 -0.000618391 0.000535924 -0.959519 -0.000940923 0.000546969 0.685556 -0.00095497 6.14147 24.1293 6.18297 -13.8603 -0.0499413 6.77234 35.0118 -11.0136 -7.10432 50.3165 22.385 50.7594 1.69405e-05 6.64099e-06 3.38779e-07 -2.89847 1.12144 -0.00640819 1.22457e-05 1.05363e-06 -3.00446 8.02893 -4.95145 0.69771 -40.5243 -10.9805 6.98558 -52.3715 17.4562 -44.2865 3.46516e-06 1.2433e-06 2.95205e-06 4.19473 1.5205 0.94455 4.86253e-07 3.06627e-07 2.99999 -8.02886 -4.95143 -0.697674 177.906 1.3322 -0.34644 180 7.01548e-15 178.929 178.455 6.40202 179.704 1.36169e-06 -1.87513e-07 0.0782559 -18.726 67.9928 19.5214 8.13373 25.2328 -3.48656 -176.745 1.40061 2.11868 4.54188e-06 -4.6773e-06 -1.07055 -2.31581 -6.69894 0.144441 -6.58399e-07 -4.47814e-06 -0.0952163 19.1036 68.4464 -19.9118 -8.1277 25.2331 3.48399 
51.2936 100.859 17.7117 0.0396292 -0.0761024 0.147122 9.55365e-09 -2.48077 4.10796e-08 8.08185e-09 -0.958717 1.00117e-08 -6.29783e-09 0.686358 -4.63772e-08 6.13833 24.1294 6.18618 -13.8573 -0.0525311 6.77461 35.0088 -11.0127 -7.10338 50.3184 22.3871 50.7596 1.69405e-05 6.64099e-06 3.38779e-07 -2.89891 1.1221 -0.00637352 1.22457e-05 1.05363e-06 -3.00446 8.02893 -4.95145 0.69771 -40.5272 -10.9807 6.98514 -52.3694 17.455 -44.2871 3.46516e-06 1.2433e-06 2.95205e-06 4.1947 1.52194 0.944412 4.86253e-07 3.06627e-07 2.99999 -8.02886 -4.95143 -0.697674 177.906 1.33283 -0.347078 180 7.01548e-15 178.929 178.457 6.40275 179.704 1.36169e-06 -1.87513e-07 0.0781777 -18.726 67.9928 19.5214 8.13373 25.2328 -3.48656 -176.744 1.39964 2.11717 4.54188e-06 -4.6773e-06 -1.07055 -2.31643 -6.69927 0.144573 -6.58399e-07 -4.47814e-06 -0.0952316 19.1027 68.4455 -19.9108 -8.1277 25.2331 3.48399 
51.2947 100.86 17.7104 0.0401679 -0.0762976 0.142843 0.000331494 -2.48063 0.000186484 0.000659786 -0.95844 0.000198602 0.000665521 0.686636 0.000191897 6.13074 24.1304 6.19156 -13.8537 -0.0552236 6.77703 35.0029 -11.0104 -7.10112 50.3204 22.3895 50.7599 1.69405e-05 6.64099e-06 3.38779e-07 -2.89939 1.12261 -0.00634514 1.22457e-05 1.05363e-06 -3.00446 8.02893 -4.95145 0.69771 -40.5331 -10.9814 6.98605 -52.3667 17.4536 -44.2877 3.46516e-06 1.2433e-06 2.95205e-06 4.19453 1.52271 0.944332 4.86253e-07 3.06627e-07 2.99999 -8.02886 -4.95143 -0.697674 177.906 1.33446 -0.347764 180 7.01548e-15 178.929 178.458 6.40392 179.704 1.36169e-06 -1.87513e-07 0.0780995 -18.7259 67.9927 19.5213 8.13373 25.2328 -3.48656 -176.744 1.39957 2.11559 4.54188e-06 -4.6773e-06 -1.07056 -2.31727 -6.69966 0.144682 -6.58399e-07 -4.47814e-06 -0.0952469 19.1018 68.4445 -19.9099 -8.1277 25.2331 3.48399 
51.2937 100.859 17.6827 0.0405703 -0.0758293 0.138581 0.00125549 -2.48073 -3.34805e-05 0.00250699 -0.958641 -0.000331631 0.00252853 0.686434 -0.000365024 6.1187 24.1324 6.1992 -13.8495 -0.0581639 6.77964 34.9939 -11.0068 -7.0976 50.3225 22.3923 50.7602 1.69405e-05 6.64099e-06 3.38779e-07 -2.89993 1.12296 -0.00632395 1.22457e-05 1.05363e-06 -3.00446 8.02893 -4.95145 0.69771 -40.542 -10.9829 6.98841 -52.3636 17.4521 -44.2885 3.46516e-06 1.2433e-06 2.95205e-06 4.19438 1.52286 0.944301 4.86253e-07 3.06627e-07 2.99999 -8.02886 -4.95143 -0.697674 177.905 1.33707 -0.348565 180 7.01548e-15 178.929 178.459 6.40559 179.704 1.36169e-06 -1.87513e-07 0.078021 -18.7259 67.9927 19.5213 8.13373 25.2328 -3.48656 -176.744 1.40033 2.11385 4.54188e-06 -4.6773e-06 -1.07056 -2.31829 -6.7001 0.14478 -6.58399e-07 -4.47814e-06 -0.0952623 19.1009 68.4434 -19.9088 -8.1277 25.2331 3.48399 
51.2926 100.858 17.6922 0.0408506 -0.0747834 0.134339 0.0026873 -2.48104 -0.000605435 0.00537189 -0.959259 -0.00149189 0.00541784 0.685817 -0.00156919 6.10286 24.1351 6.20876 -13.8448 -0.0612761 6.78244 34.9824 -11.002 -7.09302 50.3248 22.3954 50.7604 1.69405e-05 6.64099e-06 3.38779e-07 -2.9005 1.12318 -0.00630861 1.22457e-05 1.05363e-06 -3.00446 8.02893 -4.95145 0.69771 -40.5534 -10.9852 6.99203 -52.3602 17.4505 -44.2894 3.46516e-06 1.2433e-06 2.95205e-06 4.19424 1.52247 0.94431 4.86253e-07 3.06627e-07 2.99999 -8.02886 -4.95143 -0.697674 177.905 1.34054 -0.349459 180 7.01548e-15 178.929 178.461 6.40768 179.704 1.36169e-06 -1.87513e-07 0.0779423 -18.7259 67.9927 19.5213 8.13373 25.2328 -3.48656 -176.743 1.40181 2.11198 4.54188e-06 -4.6773e-06 -1.07056 -2.31946 -6.70061 0.144868 -6.58399e-07 -4.47814e-06 -0.0952776 19.0998 68.4422 -19.9077 -8.1277 25.2331 3.48399 
51.2907 100.862 17.7041 0.0410226 -0.0732452 0.130118 0.00454219 -2.48152 -0.00147496 0.00908473 -0.960228 -0.00318339 0.00916227 0.684848 -0.00331898 6.08388 24.1385 6.21993 -13.8397 -0.064484 6.78539 34.9688 -10.9963 -7.08753 50.3272 22.3989 50.7607 1.69405e-05 6.64099e-06 3.38779e-07 -2.90112 1.12329 -0.0062978 1.22457e-05 1.05363e-06 -3.00446 8.02893 -4.95145 0.69771 -40.5668 -10.9879 6.9967 -52.3566 17.4489 -44.2903 3.46516e-06 1.2433e-06 2.95205e-06 4.19409 1.52163 0.944354 4.86253e-07 3.06627e-07 2.99999 -8.02886 -4.95143 -0.697674 177.905 1.34472 -0.350426 180 7.01548e-15 178.929 178.462 6.41009 179.704 1.36169e-06 -1.87513e-07 0.0778635 -18.7259 67.9927 19.5213 8.13373 25.2328 -3.48656 -176.742 1.40392 2.11001 4.54188e-06 -4.6773e-06 -1.07057 -2.32076 -6.70118 0.144947 -6.58399e-07 -4.47814e-06 -0.0952928 19.0987 68.4409 -19.9065 -8.1277 25.2331 3.48399 
51.2783 100.861 17.7136 0.0411006 -0.0713005 0.125921 0.00673545 -2.48215 -0.00258765 0.0134757 -0.961485 -0.00530732 0.0135906 0.68359 -0.00551276 6.06241 24.1423 6.23238 -13.8343 -0.0677116 6.78848 34.9535 -10.9897 -7.08132 50.3297 22.4026 50.761 1.69405e-05 6.64099e-06 3.38779e-07 -2.90176 1.12334 -0.00629019 1.22457e-05 1.05363e-06 -3.00446 8.02893 -4.95145 0.69771 -40.5818 -10.9912 7.00222 -52.3528 17.4472 -44.2913 3.46516e-06 1.2433e-06 2.95205e-06 4.19391 1.52045 0.944425 4.86253e-07 3.06627e-07 2.99999 -8.02886 -4.95143 -0.697674 177.905 1.34949 -0.351443 180 7.01548e-15 178.929 178.464 6.41276 179.704 1.36169e-06 -1.87513e-07 0.0777845 -18.7259 67.9926 19.5213 8.13373 25.2328 -3.48656 -176.742 1.40654 2.10798 4.54188e-06 -4.6773e-06 -1.07057 -2.32216 -6.70181 0.145018 -6.58399e-07 -4.47814e-06 -0.0953081 19.0976 68.4396 -19.9053 -8.1277 25.2331 3.48399 
51.2767 100.86 17.7028 0.0410984 -0.0690349 0.121749 0.00918235 -2.48289 -0.00388907 0.0183752 -0.962967 -0.00776489 0.0185316 0.682109 -0.00804893 6.03911 24.1465 6.2458 -13.8287 -0.070883 6.79168 34.9369 -10.9827 -7.07457 50.3321 22.4066 50.7613 1.69405e-05 6.64099e-06 3.38779e-07 -2.90242 1.12333 -0.00628445 1.22457e-05 1.05363e-06 -3.00446 8.02893 -4.95145 0.69771 -40.5979 -10.9948 7.00838 -52.3489 17.4455 -44.2922 3.46516e-06 1.2433e-06 2.95205e-06 4.19369 1.51902 0.944518 4.86253e-07 3.06627e-07 2.99999 -8.02886 -4.95143 -0.697674 177.905 1.35472 -0.352489 180 7.01548e-15 178.929 178.466 6.41559 179.703 1.36169e-06 -1.87513e-07 0.0777054 -18.7259 67.9926 19.5213 8.13373 25.2328 -3.48656 -176.741 1.40957 2.10592 4.54188e-06 -4.6773e-06 -1.07057 -2.32365 -6.70249 0.145081 -6.58399e-07 -4.47814e-06 -0.0953234 19.0964 68.4383 -19.9041 -8.1277 25.2331 3.48399 
51.2845 100.865 17.6953 0.0410301 -0.066534 0.117605 0.0117982 -2.48371 -0.00532482 0.0236133 -0.964609 -0.0104573 0.0238142 0.680466 -0.0108259 6.01463 24.1509 6.25986 -13.823 -0.0739221 6.79499 34.9196 -10.9752 -7.06744 50.3346 22.4108 50.7617 1.69405e-05 6.64099e-06 3.38779e-07 -2.90309 1.12331 -0.00627926 1.22457e-05 1.05363e-06 -3.00446 8.02893 -4.95145 0.69771 -40.6148 -10.9987 7.01498 -52.345 17.4437 -44.2931 3.46516e-06 1.2433e-06 2.95205e-06 4.19343 1.51743 0.944625 4.86253e-07 3.06627e-07 2.99999 -8.02886 -4.95143 -0.697674 177.904 1.36026 -0.353543 180 7.01548e-15 178.929 178.467 6.41855 179.703 1.36169e-06 -1.87513e-07 0.0776261 -18.7259 67.9926 19.5213 8.13373 25.2328 -3.48656 -176.741 1.41291 2.10387 4.54188e-06 -4.6773e-06 -1.07058 -2.3252 -6.70324 0.145137 -6.58399e-07 -4.47814e-06 -0.0953386 19.0953 68.437 -19.9028 -8.1277 25.2331 3.48399 
